<?xml version="1.0" standalone="no"?>
<!DOCTYPE svg PUBLIC "-//W3C//DTD SVG 20010904//EN"
 "http://www.w3.org/TR/2001/REC-SVG-20010904/DTD/svg10.dtd">
<svg version="1.0" xmlns="http://www.w3.org/2000/svg"
 width="202.000000pt" height="202.000000pt" viewBox="0 0 202.000000 202.000000"
 preserveAspectRatio="xMidYMid meet">
<metadata>
Created by potrace 1.14, written by Peter Selinger 2001-2017
</metadata>
<g transform="translate(0.000000,202.000000) scale(0.100000,-0.100000)"
fill="#000000" stroke="none">
<path d="M376 1935 c-4 -20 -10 -33 -14 -31 -5 3 -14 1 -22 -5 -13 -7 -12 -9
3 -9 9 0 17 -6 17 -12 0 -9 4 -8 10 2 5 8 10 11 10 6 0 -5 11 1 25 14 29 28
30 33 9 54 -23 24 -31 20 -38 -19z"/>
<path d="M454 1895 c-7 -18 2 -45 15 -45 13 0 22 27 15 45 -4 8 -10 15 -15 15
-5 0 -12 -7 -15 -15z"/>
<path d="M526 1884 c-9 -8 -16 -19 -16 -24 0 -5 -3 -16 -6 -24 -5 -12 -2 -15
10 -10 9 3 23 1 31 -6 12 -10 15 -10 15 0 0 7 6 10 14 7 8 -3 21 2 30 12 18
20 20 31 6 31 -5 0 -10 -6 -10 -13 0 -7 -13 -13 -30 -13 -27 -2 -29 0 -23 27
6 33 1 36 -21 13z"/>
<path d="M1025 1860 c-3 -5 -1 -10 4 -10 6 0 11 5 11 10 0 6 -2 10 -4 10 -3 0
-8 -4 -11 -10z"/>
<path d="M1536 1855 c4 -8 11 -15 16 -15 6 0 5 6 -2 15 -7 8 -14 15 -16 15 -2
0 -1 -7 2 -15z"/>
<path d="M1010 1830 c0 -5 5 -10 10 -10 6 0 10 5 10 10 0 6 -4 10 -10 10 -5 0
-10 -4 -10 -10z"/>
<path d="M480 1785 c-10 -12 -10 -15 4 -15 9 0 16 7 16 15 0 8 -2 15 -4 15 -2
0 -9 -7 -16 -15z"/>
<path d="M637 1783 c-4 -3 -7 -18 -6 -32 1 -26 1 -25 10 3 9 31 7 41 -4 29z"/>
<path d="M300 1771 c0 -5 5 -13 10 -16 6 -3 10 -2 10 4 0 5 -4 13 -10 16 -5 3
-10 2 -10 -4z"/>
<path d="M1016 1770 c-42 -8 -58 -27 -63 -75 -4 -37 -9 -77 -12 -90 -1 -5 -6
-3 -11 5 -5 8 -10 10 -10 4 0 -6 -10 -9 -23 -7 -13 3 -40 -2 -60 -11 -30 -12
-37 -21 -38 -43 -1 -15 0 -32 1 -38 2 -5 4 -18 5 -28 3 -29 21 -39 82 -44 32
-3 60 -7 62 -9 8 -8 13 -48 14 -129 2 -91 -8 -129 -32 -119 -61 26 -115 15
-179 -37 l-49 -40 -13 -90 c-12 -82 -11 -93 5 -132 10 -23 27 -51 37 -63 10
-11 18 -28 18 -37 0 -10 11 -27 25 -39 14 -12 25 -27 25 -33 0 -7 20 -31 45
-54 25 -23 45 -45 45 -50 0 -4 44 -54 99 -111 l99 -104 -28 -26 c-16 -15 -34
-45 -41 -69 -11 -38 -15 -42 -43 -41 -53 3 -59 1 -53 -20 7 -26 -1 -25 -24 2
-19 21 -19 22 1 43 41 44 16 73 -31 36 -62 -48 -92 -30 -44 27 14 17 25 33 25
36 0 10 -29 7 -49 -6 -15 -9 -25 -9 -43 -1 l-23 12 27 0 c42 1 58 11 58 36 0
27 -20 37 -61 28 -28 -5 -30 -4 -23 21 5 21 3 26 -13 26 -27 0 -93 -58 -93
-81 0 -11 4 -18 9 -14 10 5 51 -32 51 -46 0 -3 14 -12 31 -19 22 -9 29 -18 26
-31 -6 -21 31 -49 62 -49 11 0 22 -9 26 -19 3 -10 20 -24 38 -31 18 -6 45 -18
60 -27 15 -8 47 -16 70 -17 23 -2 47 -4 52 -6 25 -6 56 1 52 13 -2 6 -10 12
-18 12 -33 1 -41 16 -35 68 10 69 22 90 45 77 23 -12 31 -4 31 28 0 17 4 23
15 18 9 -3 37 11 68 34 28 22 55 40 60 40 4 0 7 6 7 13 0 8 9 22 20 32 11 10
18 20 16 23 -3 2 12 32 33 65 39 65 81 145 98 187 29 72 49 195 33 205 -6 3
-7 17 -4 30 9 38 -24 116 -68 157 -31 30 -50 38 -96 45 -65 9 -101 6 -119 -9
-25 -20 -37 -2 -39 63 -7 177 -7 179 30 179 34 1 104 15 113 24 10 10 -8 96
-24 112 -12 11 -27 14 -52 10 -20 -3 -46 -3 -59 1 -22 5 -23 10 -22 77 2 96 3
91 -25 104 -28 13 -41 13 -99 2z"/>
<path d="M520 1761 c0 -5 7 -11 15 -15 8 -3 15 -1 15 3 0 5 -7 11 -15 15 -8 3
-15 1 -15 -3z"/>
<path d="M460 1740 c0 -5 5 -10 11 -10 5 0 7 5 4 10 -3 6 -8 10 -11 10 -2 0
-4 -4 -4 -10z"/>
<path d="M440 1704 c0 -8 5 -12 10 -9 6 4 8 11 5 16 -9 14 -15 11 -15 -7z"/>
<path d="M688 1693 c7 -3 16 -2 19 1 4 3 -2 6 -13 5 -11 0 -14 -3 -6 -6z"/>
<path d="M635 1420 c-3 -5 -1 -10 4 -10 6 0 11 5 11 10 0 6 -2 10 -4 10 -3 0
-8 -4 -11 -10z"/>
<path d="M1592 743 c3 -26 1 -28 -29 -25 -27 3 -33 0 -33 -15 0 -25 61 -48 88
-34 40 21 33 101 -9 101 -16 0 -19 -6 -17 -27z"/>
<path d="M1460 750 c0 -5 9 -10 20 -10 11 0 20 5 20 10 0 6 -9 10 -20 10 -11
0 -20 -4 -20 -10z"/>
<path d="M592 688 c-17 -17 -15 -31 8 -51 11 -9 20 -22 20 -29 0 -10 -3 -9 -9
1 -7 11 -13 8 -26 -13 l-18 -27 -26 31 c-24 29 -28 31 -53 20 -37 -17 -43 -48
-12 -72 13 -11 21 -24 18 -30 -4 -6 1 -8 15 -3 18 5 21 2 21 -20 0 -19 4 -26
14 -22 8 3 20 0 26 -8 6 -7 17 -12 25 -11 24 3 95 83 95 106 0 11 7 23 16 27
8 3 13 12 10 19 -3 8 -1 14 4 14 6 0 10 7 10 15 0 9 -9 15 -25 15 -24 0 -51
31 -38 44 3 3 -9 6 -28 6 -19 0 -40 -5 -47 -12z m29 -147 c-7 -5 -11 -13 -7
-19 3 -5 -1 -12 -9 -16 -9 -3 -19 3 -25 14 -8 15 -7 18 3 14 8 -3 20 2 27 11
7 8 15 13 19 10 3 -3 -1 -10 -8 -14z"/>
<path d="M1493 641 c-13 -11 -23 -25 -23 -31 0 -19 40 -70 55 -70 16 0 25 -22
25 -61 0 -27 -3 -29 -38 -29 -31 0 -45 7 -66 31 -25 27 -32 30 -64 24 -87 -16
-120 -109 -51 -146 34 -17 47 4 26 40 -12 21 -14 32 -6 36 13 9 104 -83 111
-112 9 -35 -14 -68 -47 -68 -32 0 -43 -16 -21 -34 18 -15 59 -5 81 19 23 25
25 113 2 137 -24 27 -12 34 43 27 46 -6 47 -5 61 27 7 19 13 52 12 74 0 24 5
44 14 50 32 24 -31 106 -80 105 -7 -1 -22 -9 -34 -19z"/>
<path d="M777 543 c-4 -3 -7 -15 -7 -25 0 -13 7 -18 25 -18 26 0 29 7 19 34
-6 16 -26 21 -37 9z"/>
<path d="M1133 283 c-7 -2 -13 -11 -13 -19 0 -8 -5 -14 -10 -14 -6 0 -9 -12
-6 -27 2 -16 5 -31 5 -35 1 -4 18 -19 38 -33 43 -29 63 -20 38 18 -16 24 -16
28 1 56 15 25 15 32 5 45 -13 16 -34 19 -58 9z"/>
<path d="M430 160 c-9 -6 -10 -10 -3 -10 6 0 15 5 18 10 8 12 4 12 -15 0z"/>
<path d="M360 116 c0 -19 4 -23 20 -19 23 6 25 14 8 31 -18 18 -28 14 -28 -12z"/>
<path d="M418 128 c-7 -19 2 -38 18 -38 15 0 17 9 8 34 -7 19 -20 21 -26 4z"/>
<path d="M286 94 c-3 -9 -2 -23 3 -32 10 -18 11 -16 27 36 5 18 -23 15 -30 -4z"/>
</g>
</svg>
